<mxfile host="app.diagrams.net" agent="Mozilla/5.0 (X11; Linux x86_64) AppleWebKit/537.36 (KHTML, like Gecko) Chrome/132.0.0.0 Safari/537.36" version="26.0.11">
  <diagram name="Page-1" id="4iyEpmfPnEUsIpHzPzEC">
    <mxGraphModel dx="2074" dy="2309" grid="1" gridSize="10" guides="1" tooltips="1" connect="1" arrows="1" fold="1" page="1" pageScale="1" pageWidth="827" pageHeight="1169" math="0" shadow="0">
      <root>
        <mxCell id="0" />
        <mxCell id="1" parent="0" />
        <mxCell id="JCezyQJVqizdtmktXzGz-23" value="" style="whiteSpace=wrap;html=1;aspect=fixed;" parent="1" vertex="1">
          <mxGeometry x="35" y="-20" width="830" height="830" as="geometry" />
        </mxCell>
        <mxCell id="JCezyQJVqizdtmktXzGz-11" value="" style="rounded=0;whiteSpace=wrap;html=1;fillColor=none;" parent="1" vertex="1">
          <mxGeometry x="290" y="344.5" width="480" height="260" as="geometry" />
        </mxCell>
        <mxCell id="JCezyQJVqizdtmktXzGz-1" value="" style="shape=image;verticalLabelPosition=bottom;labelBackgroundColor=default;verticalAlign=top;aspect=fixed;imageAspect=0;image=https://miro.medium.com/v2/resize:fit:700/1*MAUWGPtKFFpyttwjCOC9UQ.png;" parent="1" vertex="1">
          <mxGeometry x="70" y="130" width="700" height="197" as="geometry" />
        </mxCell>
        <mxCell id="JCezyQJVqizdtmktXzGz-4" value="" style="shape=image;verticalLabelPosition=bottom;labelBackgroundColor=default;verticalAlign=top;aspect=fixed;imageAspect=0;image=data:image/png,iVBORw0KGgoAAAANSUhEUgAAAJ0AAAAkCAIAAAAcga88AAAACXBIWXMAAA7EAAAOxAGVKw4bAAAUo0lEQVR4nO1beXhURbY/VXVv793pdBYaAxojCYGQkAQIQcAgIhgFRkCWx2MRw1NB8MMRFZx5Mg6rIy48PhxGBTdEZ4wYlcgIzyCbaAxmgSwEAgTobJ1Oel/uUvX+uNBmOsFxFpxvfPn903WrazmnfnVOnapbFzHG4C/RPUfJBkDhApQBQhgAcJdKlCGEAWEARgExBggAIQDEADHG0JUqvfgJwHVlESF09REBMEAAwJBCJ8PAgFLGEJKBCTL1BeUOu1/D87EWnVbLGEOCxAiHOAyAKABjQIAhwgAxYLKMeI4x1qWLXlxHcAh9b4UAAIAYY8CAIcaAAsgYCAKMKIAMVAaJQGsQnbOFymuaG0536FX6gSmxaYNMSf20Kg4AAQFAgBEDTDGwKwaNAAMDpatwj724fvjeeq4aEygZDDHKRIQAIcIYZhQxBi4XPXmu49hpV/k54XyTVxQIlphOTZL663PStekplkE368w6wACEAicBoqDwDJQBr/gApHT0r1T6/wG68QrAKGMACAOTBEQ4QCTAwOaEU3XeUzUtJ+vdjQ6/pDZhjYkyYJJEgzIRZR78N/UzZA8xpCXHDE7RxOuRRgYsA8IyJgQkAA4YuuKHe3m93ojkFQAkKjPGMMKIMglIuweOVrUdPtlRex5cPpEiFSI8w0B4GDjQyGN/RZmPB5MkIZkJPAn0ieMyBuERKZacNLOJxwZOxphACIADhnt5/YnQnVcmU5kBYogIDA5+5Tj4TdNpG1zuECjRaPQ6CjxFKkmWGA3kT4g1mzy7/9hB+L4M84AloD6CAoh5Y414YD8yZVzabYM4nlEiYcDAuL+T13/fqfCvkpzrnoUAKCAZQfUlePOTs7Z2dUBWE47T61SUSbIsiLI/GPRpOMHMx+gkAQXtXgGwWsfzmCcAiJOprsUrN1dKjZfLEx8fNsCC4C9DYGUyKQqHJ9YP6P/vQipjLKyaIvO/SvIeeAUAymSJoQsOVNscsMT24/2+m27QnTlbT9RGjtBBCdoxuf36xkBKgoGjfKJJ22Dnj5Y7LthcKmIUQ8GEBKMn5BfUsbXnau0u1s+Addfe2vwYCxYEQaVS/YOq/hhQSjH+ezbZigphLcKJv1XyrjP+H0HPOnAIqxCqPt0qccagLMX1MS5Y0Oe2USko1JI/LuWRhUn3jI5LS4qLNXCxes2QAXGTb49dMr//xFwL8dkmjTYVzO0bY2RUYhRrvjvZIuPwkQYAAKXUbrefP39eefR4PPX19e3t7d3FoJQCwJEjR2bPnq0ofL33vn/3gCoV29vbS0tLKysrJUkCgMbGxpkzZzY3N8OPlvyfZd+R9qpMF4ywCHDmtE3FmwQqOzydB0qC995905TR2jhrdM2l0K4Pavxez8xfDOU453sf14LKNOWOlP+8p1/+WLMf9CXHHU12EqKI4zXHT5xe+IsEJn7PbEdHx44dO2w228aNGzHGr73+2r59+1Y+vvLOO+/sOuXDY3Hx4sXDhw+H88MmpTg9pUp3xx7RTvivcKJrXSXd2NhYUlIyefLk+Ph4paIsy4SQrolw4xG9SJK0fv36zz//3Ol0YoxNJtN7772HEPryyy8DgQBcY6Ht2hpjDGNcUlJit9unTZvG83zXXsIFIjS6Fnq0VyRKcnsHA1HFgVql0WJOtf9/yyvKLmYPjuGYcPjQ2aNfN7S7OImoQoizueRD354pLT1rQPKIlOiKsqqDR8+EZD3CvN5gcHjkIAKKlfMrBAAMmNPltNvtOp2u8MPCl156adSoUbm5uRjjCFkVNXie/14yhMK6KenwMtbVB0a00909RtRV0jU1Na+88kpra2uEAF0TXRfOrr2sXbv2lVdeufvuu996661du3YZjcbq6mqj0RgWuEf33rU1pcB77723adOmUCgU0UtXxeFHmHUPnTHAHEdOn3W2Nrs4xAeCUkAIxRq14yYkOBmAin9ozoDZ+al64tCrMRK8fTWuZbOSH5gzWERqjx/SU5PVPKVM4ghTqTXnW7y1jSATYHA1eGIAAITHX5R88fzm56dNm7by8ZVRUVHffffdI488Ul5erpQqKCgoLCyklIqiKIrin/70p2HDhuXl5X300UdKAY/Hs2PHjtGjR+fm5m7btq2jowMAXn/99RdffPGpp54aMmRIVVVVdXV1QUHBvn37RowYkZeXt3fvXqWu1+t95513xo4dO3LkyJdfftlut5eUlKxfv76ysnLhwoUzZsxwOp0A8Mwzz2RkZIwaNWrHjh1KxVOnTt13332DBg2aN29eRUWFLMuU0jNnzhw5cmTevHn333//8OHDMzMz33777by8vM7OTgDgOK6xsXHevHllZWUA0NjYuGHDhrfffhsA6urqlixZkpaWNn78+Kqqqm3bthUXF1dXV48fP37NmjUA0NzcPGfOnIyMjBkzZhw/fhwATp8+vXnz5g0bNsyePXv58uUNDQ2U0u5OvkdeQQJ0qdkryRxCHEZqUZBuuiFGoyavvt/425c/NkWr75+VtOqxcQMTIXNQ/189Nnn+1KEBj/rF3x/Z98X5tBRTcqKFySEx6JdlxlTmqrOyjEAC2mWiQllZ2caNGzOHZj75xJM6nU6W5YaGhoMHDzocDqXIoUOHTpw4wRgjhHi93sceeyw3NxchtHbt2gMHDoii+O67765ZsyY9PT0rK+v5558vKioKhULffPPN+vXr33///bi4OI1Gc/ny5V27di1atGjIkCGCIKxbt662tlaSpA8++GDVqlUpKSk5OTlbtmwpLi6++eabExISOI5LSkpKTU3lOG7u3LkvvPDCokWLbr311meffXb79u1nzpx5+umnHQ7Hgw8+qNfrbTab4h5PnjzZ3Nx8xx13JCQkMMYopTExMXq9XhRFACCE+P3+Y8eONTQ0AIAyh6qrq0VRfOONN2pqahYtWhQbG+twOJKTkzUajUajGTp06MCBA4PBYHp6+pEjRx566CG32/3000/X1NTY7fY9e/Zs3Lixrq7OYrF0d04KeoiHKQIPhbpLnTKnRQipic7rlgbfHE8oK68LVJ4Sl67+9L9XTBlwI2l1giyRhD6k9ETbtjdqT512miyJw4Ksb3y84YJboDLCHKc1f1VWt+iONISudIYQIoQ0NJxzOz1Tp0xVxgIhpFaru74VkGVZp9MpaaPRuG/fvtTU1IqKinvvvXfnzp1xcXFFRUWzZs3atGkTAAiCsG/fvjFjxmCMg8FgSUlJamqqSqWqq6tDCH3yySeZmZmVlZXTpk07duyYwuvUqVO3bNmCEKKU7tmzZ9iwYQ888EBFRcVTTz2VmZkpCMLevXtLSkqGDx/ucrk6Ozt37tyZk5Nz5syZ4cOHL1++nFJKCFEWXZvN5na7lRURenKSCv0ajUYxX57nKaUej6e9vX3kyJHz589/9NFHlaYmTJjwzTff/O53v4uKiioqKkIInT17lud5RbzCwsI777wTY1xQULBu3Tq1Ws1xXI+89rS+IvBLcKHVJ2MVYKrhJRCciX2iOEk8f7osc0jKbXl5WiPUn7v827UvvbR1d0srGAyGrOFDk1NvtHfYXC6vmgABn1FLtCoVIOOlVrcEgLqs+aIoDhs2bOLEiXs+2nP06NHwti/Cn8iyDACSJHEcl5GRoVKpYmNjhw4dGgwGXS5XS0vLli1bdDqdVqt98803Ozo6AoGAy+UaMmRIdHS0IAgAIIoixjgnJ0elUqnValmW3W632+1ubm5+9dVXdTqdRqPZvn270+kMBoNut1sURWXcq6qqRFEcM2aMWq2Oj49/6623KKUpKSlLly7dvXt3WlpaYWEhxljxw3q9PmIzo0geaTCUKjoqCYvFkp2d/e677w4ePHjr1q1ut5sQ4na7nU4nx3GEkIqKCofDYTab1Wr16NGjbTab0+kURTEUCilad49IwujBXhljtQ1gd/MyUcmil3rPcXKjikuLMUQXbp/XJ4aBzGQmi6rYqfl5ckg268BqUScnqf9rfqbkR0YNVJ4JilKrz9/Ja/uaoxPtl5psdpZkuSoBAoLJgAG3PLzk4dW/Wv3Ou+8kJydbrdauLkWSpHD4p2SKosjzvCzLPp9Pp9MpJr58+fJly5a5XC6VSpWQkGA2mzHGgiBQSlUqVffoOrwUIYQWL1785JNPOp1OlUpltVotFsulS5fC5TUaDUKosLAwMzOzra0tKioqLi7OYDAsW7ZswoQJa9asWbFihd1uX758OQAkJSVFR0c3Njb6/X6lImNMluWukU547hJCwpHgI488MmnSpA0bNjz77LOEkIKCAugSJxJCoqOjjx07JoqiIAjR0dFWq/XEiRNK+z9A6l/w2rXQ2fOdHT5Ro+GSbu67YkmSz5NjVYkUA8/To6WdtbUdTOy8f37OPXdmIwb2dnjnjyfdQnDI0FuyU6KQTpWZZR6QOZFK+PfbW5qdAgj4u7LW/rdbNWoGgBAgQCDLdGTOyPlz569avapfQr+Vj6+Mi4vT6/XNzc1NTU379+/3eDxarVbRMxAIbNu2bc6cOfX19dXV1cuWLbNarcnJyYIgGI3GqKgoZR+iaEsI6VFhhJDiteLj4wcNGiSKosFgMJlMsiwr1qbRaAghdrvdbrenp6cbjcbKyspRo0YlJSUpdu/1ei9evBgTE7NixQpBEJQtDQCMHTs2LS1t1apVCQkJWVlZlNJdu3bl5OSkp6crcxRjHAqFjh8/fuutt3799deHDx/OyMjw+/0ej8dkMm3atMlms9XV1fl8Pr1e39bW1tTURCm9/fbbt23b5vF4EhMTu26rrrWm9sxrV1AmEAxUFmy2lqLPYs6fc14+f2rzpol1td7nX/wUq+LvGGnVENp4MegMQZRZ1+GF/Ucvfllm+9WyXMb6bNlaKvADkhOjQj6mAdkrBA1qPiwJpRQY8IT3er1z585tbWvd8fqOAbcMmDlzZmZm5sqVK5XYQa1We71eAPB6vSaTaevWrZs3bw6FQuPGjXv44Yf79u07ffr01atXHzx40Gg0OhyOBQsWLF26NBgMBgIBxS4ZY6FQyGw2K1teQoher5dlOTk5eebMmb/85S/z8vKioqIcDocSW6ampiYlJc2aNWvw4MF79+594okntmzZsmvXLqvV2tjYOH/+/KlTp953331qtVoJWBYuXBg2rJUrVzqdzgceeIDjuGAwaDAYcnJyQqGQyWTyeDyxsbGTJ0/evXv3hx9+KMuy2Wzmeb6+vn7dunUNDQ2iKPp8viVLllgslkmTJh05cmTEiBGLFy9+7rnnsrOzp0+fbrValcn361//Wq/XI4S0Wu0PU9v9/SuTABqc6IWd1SdOh4KSWgj6eR75/K4ZU0bNnqIp2nP56PHqJx7Nt+hd2988zhlVyxbn1ZW3vF9UNWL0wEl3JJV8ceGj/RcEZqEhZjYYZMmfaPU9tzLXagYeMYRQKBSqqqpqb2/Pz88HAFuT7auvvhqYMjAjI6Ozs/PTTz+9fPny4sWLy8vL+/TpM3To0HPnzp06dSorK+uNN95ISEiYPn26xWJRZK6trf3ss8/a2tqSk5Pz8/MTEhKOHj3qcrnGjRunLD82m+3DDz989NFHAaCzs/PAgQMZGRmpqakAUF9fX1xc3NLSMmDAgLvuuqt///4AUFVV9fHHH8fHxy9YsECr1X777bfFxcU+ny89PX3KlCkajaa0tHT//v0Gg+Guu+7KysrqOpQ+n+/QoUOVlZVGo3Hq1Kn9+/f3+/07duwoKCjQ6/WdnZ1FRUWdnZ2TJk0KhUKSJOXk5Jw4ceLPf/5zIBDIz88fNmyYElgVFxeXlJTcc88948ePV8K30tJSrVY7duzYvLw8h8NRVlZmtVqzs7P/Nl4poIAMNU3wzB/KL3SqtbweM+zx+81a91OLbxnYT/fdiabs3KQvSy//z5ul+qi+D84YlJtELl3uiOtnOWdHuz++0NZJOGwwaQ1uR6M1Jrhhde4NJtATRq7cmIg8Eup6etLjgU7EZZ1wunv+Dxw29dhRRJsRLyGu1T50C3q7X/GJOOG6Vt3umd0H5wfavBbIb37zm0jtGOIQRJmB6Aw19Y2STCjRcDqTx+erqT5/y43mscP7MQoXWySEaUIfY3aKMSs1Ks5qrjrrf2dPXbNTTdQmURRDISdmbcsX35qWiHmgPFCMlPO/yPc5EadlXUcqIrP7EESo3X1Quh7l99hvxJD1+BhxYBkhRrjrcMQb/rd77xFVrsVrdxkiqvx4PwwIwdX9BhIQeAEKD1zY9ZnNA31CWIcYENHdV9363OOjA163W5A0Wh0AEQM+vYrjjMbX3y//qtKrMt5AOJ0sevUq58xJN82eYNUSUFNBjTEC/gdE6cU/EZFx09UYGghjegYzJya6QuitT88jbT+EtYGQNHDELa1B32uvlQsSNptjCce7XU6OwJTJAxL7JZw62y4TrShKUsBx1+3W6bfHawhSAcUIXbnjCH/FgfTin4KuvIYHHTEADFQFjDHuvkk3NXX4Pj/SpDPdiAmLs/Y7drKj4gKLtpib/TIAQ9jid3v6V/n7W28wa+WOIJb99tuyLf8x8cYYFeaA4Sv3EVH4AnIvu9cbPdzmVe6XIkYRiBLi/IhcdMPmP9RW1jmJymKMihMlwe326vV6AGAMyZSXBRqrxyY1cgZlh6tteCq3dE5iSoJag+lVAhlWdq69VvuToCdelbewDBCSGDAZ8QGA8tPy1p3f1l0MIFUUpVStUmOOAGOMIQq8JDEsy2oCAgsl9tcsn504aqBaxYNy/yXMIbpCbS+v1x0986r8IMSAMUBYBPCLrLzG/VWZHbCOUspxVyNbAAmwSBlmoCIYcCh9cMyYITo9YRyHELoa2l3tDvUy+pOgh/uIV5hlCBi6UgQYZZgy6HSBJAECwESpAxSBiEAGwAwIY5IsRkVxJg2mEsMEIXTl3Ry+UryX158IPX4tQwEAGOriLalCjcyA0cjNE0WMKssnQ7IscQQTgpny2VW4m4jfXlxn/G1fQV2jbPhTLQCAv3YS0oufAj2/p/trtXqwRADlBhMDdpVndI0qvbj+6P1q8eeJ3g+Nf57o5fXniV5ef574P04w7Gu4ilS6AAAAAElFTkSuQmCC;" parent="1" vertex="1">
          <mxGeometry x="510" y="94" width="157" height="36" as="geometry" />
        </mxCell>
        <mxCell id="JCezyQJVqizdtmktXzGz-5" value="" style="whiteSpace=wrap;html=1;aspect=fixed;fillColor=none;" parent="1" vertex="1">
          <mxGeometry x="610" y="158.5" width="150" height="150" as="geometry" />
        </mxCell>
        <mxCell id="JCezyQJVqizdtmktXzGz-6" value="&lt;b&gt;&lt;font style=&quot;font-size: 16px;&quot;&gt;Deployment&lt;/font&gt;&lt;/b&gt;" style="text;html=1;align=center;verticalAlign=middle;whiteSpace=wrap;rounded=0;" parent="1" vertex="1">
          <mxGeometry x="630" y="117" width="110" height="58.5" as="geometry" />
        </mxCell>
        <mxCell id="JCezyQJVqizdtmktXzGz-17" value="&lt;b&gt;&lt;font style=&quot;font-size: 16px;&quot;&gt;StatefulSet&lt;/font&gt;&lt;/b&gt;" style="text;html=1;align=center;verticalAlign=middle;whiteSpace=wrap;rounded=0;" parent="1" vertex="1">
          <mxGeometry x="570" y="365.75" width="110" height="58.5" as="geometry" />
        </mxCell>
        <mxCell id="JCezyQJVqizdtmktXzGz-19" value="&lt;font style=&quot;font-size: 16px;&quot;&gt;Wordpress Database&lt;/font&gt;" style="text;html=1;align=center;verticalAlign=middle;whiteSpace=wrap;rounded=0;" parent="1" vertex="1">
          <mxGeometry x="334" y="360" width="160" height="50" as="geometry" />
        </mxCell>
        <mxCell id="JCezyQJVqizdtmktXzGz-21" value="" style="rounded=0;whiteSpace=wrap;html=1;fillColor=none;" parent="1" vertex="1">
          <mxGeometry x="280" y="130" width="500" height="480" as="geometry" />
        </mxCell>
        <mxCell id="JCezyQJVqizdtmktXzGz-22" value="&lt;font style=&quot;font-size: 17px;&quot;&gt;&lt;b style=&quot;&quot;&gt;CAPI managed&amp;nbsp;&lt;/b&gt;&lt;/font&gt;" style="text;html=1;align=center;verticalAlign=middle;whiteSpace=wrap;rounded=0;" parent="1" vertex="1">
          <mxGeometry x="350" y="85" width="200" height="54" as="geometry" />
        </mxCell>
        <mxCell id="JCezyQJVqizdtmktXzGz-34" value="" style="rounded=0;whiteSpace=wrap;html=1;strokeColor=none;" parent="1" vertex="1">
          <mxGeometry x="430" y="136" width="160" height="60" as="geometry" />
        </mxCell>
        <mxCell id="JCezyQJVqizdtmktXzGz-18" value="&lt;font style=&quot;font-size: 16px;&quot;&gt;Wordpress Frontend&lt;/font&gt;" style="text;html=1;align=center;verticalAlign=middle;whiteSpace=wrap;rounded=0;" parent="1" vertex="1">
          <mxGeometry x="324" y="145.25" width="170" height="41.5" as="geometry" />
        </mxCell>
        <mxCell id="s27BEBi0idszuxIBBAvQ-9" value="" style="edgeStyle=orthogonalEdgeStyle;rounded=0;orthogonalLoop=1;jettySize=auto;html=1;" edge="1" parent="1" source="s27BEBi0idszuxIBBAvQ-2" target="s27BEBi0idszuxIBBAvQ-6">
          <mxGeometry relative="1" as="geometry" />
        </mxCell>
        <mxCell id="s27BEBi0idszuxIBBAvQ-10" style="edgeStyle=orthogonalEdgeStyle;rounded=0;orthogonalLoop=1;jettySize=auto;html=1;entryX=0;entryY=0.75;entryDx=0;entryDy=0;startArrow=classic;startFill=1;" edge="1" parent="1" source="s27BEBi0idszuxIBBAvQ-2" target="JCezyQJVqizdtmktXzGz-5">
          <mxGeometry relative="1" as="geometry">
            <Array as="points">
              <mxPoint x="310" y="479" />
              <mxPoint x="310" y="290" />
              <mxPoint x="570" y="290" />
              <mxPoint x="570" y="271" />
            </Array>
          </mxGeometry>
        </mxCell>
        <mxCell id="s27BEBi0idszuxIBBAvQ-2" value="" style="shape=image;verticalLabelPosition=bottom;labelBackgroundColor=default;verticalAlign=top;aspect=fixed;imageAspect=0;image=data:image/png,iVBORw0KGgoAAAANSUhEUgAAAGAAAAAsCAIAAAAVYCp4AAAACXBIWXMAAA7EAAAOxAGVKw4bAAAIHklEQVRoge2aa5BUxRXH/+d037nD7LIL7AKKTxaEAIEEoyLRACIWIm8UNALGBwghiVpoAOMLq7SQCkmlNLqByEODYiBqTJWkUsGSNQbFRCjFlYCEAAvIAvseZ2fu7e6TDxeXrcTUKDNVUJX51Xzo29PnzOn/3NO3H5d2NWb2thjNEEGBCAJACKyMOieht9dnGNS9g84YR8ynO7YzAgIIsq8lSFvRRZq7+npIV78lBNPpDu3MgACP8a9koIm0E6StNAdoMlYBhTwDwICn2AgEogEQgRkKKCQYAAGYmYmIAJBGNCZ9fu8UhiFxrv3l/7scWSkIlIWCQFkoCJSFgkBZKAiUhYJAWSgIlIWCQFnIp0DOOedcW6F9+ZRdWWvb/OQx1C9P3gRyzjEzgDA0IlCaAQpDQ8Q4pe4xs4j4HbT2lIjwaVoD6XxulAmU4rOKFAEtQEefAK5tFYDpK26kROoUJ7iuPuXHO/hxTrc6ItBXdZQzjPz9pBPpGqdV614h4hIiIlr8xM/LO5AxxjkJQxNkgiAM2lImDI0xNgiDIDTG2DA00VciJ27D1hAXlhVNGze6M8NaY40NMmGQCYw5kXfG2iAMgkzQZntqGf2/ETXt3ocSLGcnvIwVxqn/Rda6TsWq+pOasSOGXjHi6hW/Wd9Q37Dtva1zZ9/RmDa+752dUKVxXerrDLMJrRfTZQnl+1zu61JfJXwu9lUAdg5EKClWpTHSCk75k6fe1OuinqmMKyvxyuKqNK49nzOGnHOJIt09rkvjuthXaUdRmotILjdaZK6IPq5PD+zi606dfGkJTtldO4FsAvqtqjcBbH5zkwauvXJDEjgWoFOp7wPPrntlS9XmwZcNufX26X6xBlC54vnrJk56df1LjY0Nw0deXf3Bh3fOu/2zUEoT/EbVu3t277579i2DBn/r/AsrHNCjxHt/174X16y21t4xd95FFT0YKmmwtHLF7p3V11w3buq4a5qsyqRtvkYr9uIJj7F6+/63j7vmjBxMmk+T5kjKndqnpilIi1RtqwYw5DsjjqSdiBw3Upt2GZG+/QYAGHTxpQDOOe+ClIhtN/Z1Ke9614IHALy1bWcgIiIAuvc4LyqMHjtRRJav3QDA8/3IpDYjtekTqdR/4DcBTJp2s4gcTprDOfTiSModTpojSdNgpHLH0T0HDvGOP6wla0DIcShSSjWk3LDB/Rc88vjWv2w+K863zf2hCaWbT8tXrt21s1pEPnj/PRE5VLP/5Vc3MhBt1R0zUnfs6JKljwFY8+tKD9i25yCAnz5VGXk+9/wLAcyZMfXSoVcG6bSI/Oq533aL4Z45swGISPWH26u2ffz79S/+41B9cZFyLtfHjoiQQuueHc88uogvnzZblIbktBvtnANERGrTsnTxTz7aVztmwpQ1y5++5GsVAN7e/AaAKTfOuPTbV147fhKAd99+K4rknoUPlSvsq2tNAMNGjl5V+SSAtaufBTBxytjIuR+PRYV7Fj0IoKY5vPWWaQA2b/oTgIlTvzt0+Mj7fnAngA+3v98BEGdz6AoAkFI2QPHAoUuWr+HO5WU2yOT4KGNmZibmeJyOhTj3gm4bX3v5Z8+sPLh/3+Gk9WIxAH379+vZu095t+7z5i+aftusyDA0BoATAXDXgvsB1DRlXnpu5fBR15a0OSfOAABivg8gCMKWEABSn6VKu5T1GzCox7nn9x0w8McPP3bxZUNaBEqpnDoTISBjLEgnm5NlCS9Hb9GTtahI7az+Z8/eFaUgAH369QdAhH79BwBY8sgDJ9t/XlDMAJTmOosxo4cDmHn9+E8PHXx69QsWiDpqnI0Gnk0bX79h9Ihe5YmtH+8t71/Ru2/fTw8femLx/W1uW4GmlBDnQyDAwVkRZq2Q6/gDIjLGlAAPLZjfPc7XT//e5Bunj79qaEXvPmcXqZl33Bm1uXvRwzNmfZ9IbdqyLTKsqzsOgMCpZJAAZs6aW/XGn2Ox+HXXDKtLn0j6A3v3Aphww03Ln1w24fqbrh4z7vIBvWpTbtkvlx+uOdD1rB4LH10yauykzl3Kj9SnlEcieZoHEQiUnyNnEWGlmoHKNS/cfNucd6o2v/fOX+fNX/j33buage6d4jv21Y4eP3ntqhWb/vj6zFlzBn5jsAVGjZlwxbCrQkBpYsWtwI/uXfT1QYOXPb0iBgRBGALjJt84csw4AM9vWHffg4/+beuWPbt2P7VqbccED7tk4MaqrT0req148hef7Pxo3vyF5V0SNszzko1e25/sHFODy+JNgVW5HfuISFGCO7araXBItzpASopUUbv6eoEzKPcQAI1piSaHzknHIi4GLHC8VUSgPOrqIQAaWkV7VKZPejgawBkpT1C7OhwLYYJc50HRbNNj+t3+pukVJTq7xZdzCoCZm5OmITRKKycQsZ6OMRNAjUlTFxrWWkREnKc1EdekAmZWSos4ETBzU9LUh4aV0lqLOBtyTSogYq11kLEHPjux9CVxSnsAjjQbZy1r7awDiac1M7ctm/NCfgSKAnLOaaUUK0AUQKSdc9GsRCulPg86qieC1h4AopNZzszKj7VVEsHzTrbxY7Fo6hh5AOB5WrQCAMVEFC3E8rvuz49AEVFk0Ylt+5qI9uujqJ75P5vxf7Vps/rCyy90m18KO4pZKAiUhYJAWSgIlIWCQFkoCJSFgkBZKAiUhXYTudMYxRmMBuAEzsFGrymepgPMMwvnHLEIANFE6KCpxAez0lR4DRgCMKAZmohAOrSyszE4lrahdYU0a0MTBdaFTv4NeS47UhDO9BQAAAAASUVORK5CYII=;" vertex="1" parent="1">
          <mxGeometry x="334" y="457.12" width="96" height="44" as="geometry" />
        </mxCell>
        <mxCell id="s27BEBi0idszuxIBBAvQ-3" value="" style="shape=image;verticalLabelPosition=bottom;labelBackgroundColor=default;verticalAlign=top;aspect=fixed;imageAspect=0;image=data:image/png,iVBORw0KGgoAAAANSUhEUgAAAF4AAAAsCAIAAABjWpjzAAAACXBIWXMAAA7EAAAOxAGVKw4bAAAE+0lEQVRoge2aTWxUVRTH/+e++96005l2OrRIOy22tkUEiwRcmGgUJCKSGIgGXXSjJiYudGXiyhgXLtwZF0Z3fizY+LEyMRiCGkUIiASQ8iHSQunQoTNT2ul8vXfvPS7GTgbjAxOYB5r3W8zizJ035/7m3pd7zhvaN11yhFDMghBiGBGLchU1VfTkumRLzCbP3O6k7gyMQdzBuXkr6ypZVNqw5ZrQDQjQgIZV0mwYUkAQIIBwP9UQBAEAkPUQCXG7srlz4IbdE+rwJVTjS6jGl1CNL6EaX0I1voRqfAnV+BKQGmMMAF6iHrnhp2rDjNZa68ZIAMgbD7lpjDFCCGOMp3TtuElCWJYQS4KEz0G8FmdmJyoFUK0Yv5HNIAg1NS/StnrarHpwDigvassStYXwj3M2xgAUbROZy/PaqFRqWbGo4a/y1hLQqrEsIW188MnumXRaa93b1//MrueXx6zZYm1BcW2/EFHNI2rzZ/aU6kBky87tuVx24tyZgmERVGMpCDXMbEdoIV9+9cUxAB2dyfm5/Gsvjf18/OyG0ZHM1aqUMtomBaFUYs9Tti0BKKVsR0aiEoDnucr1alcjCkiNYHCzv4MZguC0RgB8+uXXV/O5ybkygFdeGIsAyUSkN2YtLrhXMoW7orSi3TaGmdETt2MRmknPAuhJpWzbbnaef0ME9Rv8xUx62gXuTrQ8/NjjJ44dBTCTWRgYHOpPREZWtLdGWvcfObmsTXRF6atv9rURre1fPjA0cuTQwVgsFmiigCBLoPkLBwAxAVg5MOgAmQrv/2Hf5i1PAth478CFyfM/HTtz+MwkE2968H4BFIFd27cMDq06PZ3f9MS27JVMvCMRQJLXJJx22VbGM9y8275SOhaXiwteX4cT7+joSa08O34CwNS8p7Q3mIx+see7Z7duAvDjsdOPrr9v/NJsPpd75IHVJy/Nrkl1AVgzul4pdfbUb9MFZVmiebcbZUzMti4WvF/yJaFdDqj5KQjA8Mjqp57e8d5HH6eLuq9dHjpwAMDgPUM5g5xBIpEEkMtmL0xMAGjvSKSLDCC5rMtzq0Ek2YBk1oB144E3jSUsAK+/+fbYjm0AsgolINXfB2B2ZmbDcD+A8at5AD29qcVCAUClVBpe3g6gUFiwHSeAJBupN4mbDhsGMD110QB/ZIvVklfysH50FYCdWzdPzlXOZ4tbH9oIYKg7vmbtKICXx55bBN54653jvx5OdCaDybNOEF6IYAw81wXAzAREHEfaslrxWoC9B49WysXBZOtQd4zBh05NVIFUZ8u773/4/d49caLPd3+2eu3oXD5Xu1qtBAsi7amCbrHI8zmq3xJqdUBLK2XSc4muTkvArWoiIiJm7o4KA/w+NWvb9vCKhAfkikbaotvBlSrPXLq8bqi3AqSzhWRXvNzkQqHxNhyEGizZsVtIuWw0E1G9GvA85URkNEIGKJdZe0rYko1hNq1RWwqUKwyClORWTbOPwo1qAq28K0WuV0n1WsmyhFZm3mUAQpBly6V3US4pMEgQAK1AJK5fqd9aAqq8ce18GiNLr9cbX4couKZE2OXzJVTjS6jGl1CNL6EaX0I1voRqfAnV+BKq8SVUcw2NFZo0MAzL/Lsnrf97DMMwaiJkTFpxh1xlhf9yBKANYjZykgRBfpsuSgETUHvojochBSralD2m8XyFKJCnLf8RCKSZ4474E0MOV9/y9JQ2AAAAAElFTkSuQmCC;" vertex="1" parent="1">
          <mxGeometry x="516" y="427.75" width="94" height="44" as="geometry" />
        </mxCell>
        <mxCell id="s27BEBi0idszuxIBBAvQ-4" value="" style="shape=image;verticalLabelPosition=bottom;labelBackgroundColor=default;verticalAlign=top;aspect=fixed;imageAspect=0;image=data:image/png,iVBORw0KGgoAAAANSUhEUgAAAF4AAAAsCAIAAABjWpjzAAAACXBIWXMAAA7EAAAOxAGVKw4bAAAE+0lEQVRoge2aTWxUVRTH/+e++96005l2OrRIOy22tkUEiwRcmGgUJCKSGIgGXXSjJiYudGXiyhgXLtwZF0Z3fizY+LEyMRiCGkUIiASQ8iHSQunQoTNT2ul8vXfvPS7GTgbjAxOYB5r3W8zizJ035/7m3pd7zhvaN11yhFDMghBiGBGLchU1VfTkumRLzCbP3O6k7gyMQdzBuXkr6ypZVNqw5ZrQDQjQgIZV0mwYUkAQIIBwP9UQBAEAkPUQCXG7srlz4IbdE+rwJVTjS6jGl1CNL6EaX0I1voRqfAnV+BKQGmMMAF6iHrnhp2rDjNZa68ZIAMgbD7lpjDFCCGOMp3TtuElCWJYQS4KEz0G8FmdmJyoFUK0Yv5HNIAg1NS/StnrarHpwDigvassStYXwj3M2xgAUbROZy/PaqFRqWbGo4a/y1hLQqrEsIW188MnumXRaa93b1//MrueXx6zZYm1BcW2/EFHNI2rzZ/aU6kBky87tuVx24tyZgmERVGMpCDXMbEdoIV9+9cUxAB2dyfm5/Gsvjf18/OyG0ZHM1aqUMtomBaFUYs9Tti0BKKVsR0aiEoDnucr1alcjCkiNYHCzv4MZguC0RgB8+uXXV/O5ybkygFdeGIsAyUSkN2YtLrhXMoW7orSi3TaGmdETt2MRmknPAuhJpWzbbnaef0ME9Rv8xUx62gXuTrQ8/NjjJ44dBTCTWRgYHOpPREZWtLdGWvcfObmsTXRF6atv9rURre1fPjA0cuTQwVgsFmiigCBLoPkLBwAxAVg5MOgAmQrv/2Hf5i1PAth478CFyfM/HTtz+MwkE2968H4BFIFd27cMDq06PZ3f9MS27JVMvCMRQJLXJJx22VbGM9y8275SOhaXiwteX4cT7+joSa08O34CwNS8p7Q3mIx+see7Z7duAvDjsdOPrr9v/NJsPpd75IHVJy/Nrkl1AVgzul4pdfbUb9MFZVmiebcbZUzMti4WvF/yJaFdDqj5KQjA8Mjqp57e8d5HH6eLuq9dHjpwAMDgPUM5g5xBIpEEkMtmL0xMAGjvSKSLDCC5rMtzq0Ek2YBk1oB144E3jSUsAK+/+fbYjm0AsgolINXfB2B2ZmbDcD+A8at5AD29qcVCAUClVBpe3g6gUFiwHSeAJBupN4mbDhsGMD110QB/ZIvVklfysH50FYCdWzdPzlXOZ4tbH9oIYKg7vmbtKICXx55bBN54653jvx5OdCaDybNOEF6IYAw81wXAzAREHEfaslrxWoC9B49WysXBZOtQd4zBh05NVIFUZ8u773/4/d49caLPd3+2eu3oXD5Xu1qtBAsi7amCbrHI8zmq3xJqdUBLK2XSc4muTkvArWoiIiJm7o4KA/w+NWvb9vCKhAfkikbaotvBlSrPXLq8bqi3AqSzhWRXvNzkQqHxNhyEGizZsVtIuWw0E1G9GvA85URkNEIGKJdZe0rYko1hNq1RWwqUKwyClORWTbOPwo1qAq28K0WuV0n1WsmyhFZm3mUAQpBly6V3US4pMEgQAK1AJK5fqd9aAqq8ce18GiNLr9cbX4couKZE2OXzJVTjS6jGl1CNL6EaX0I1voRqfAnV+BKq8SVUcw2NFZo0MAzL/Lsnrf97DMMwaiJkTFpxh1xlhf9yBKANYjZykgRBfpsuSgETUHvojochBSralD2m8XyFKJCnLf8RCKSZ4474E0MOV9/y9JQ2AAAAAElFTkSuQmCC;" vertex="1" parent="1">
          <mxGeometry x="640" y="427.75" width="94" height="44" as="geometry" />
        </mxCell>
        <mxCell id="s27BEBi0idszuxIBBAvQ-5" value="" style="shape=image;verticalLabelPosition=bottom;labelBackgroundColor=default;verticalAlign=top;aspect=fixed;imageAspect=0;image=data:image/png,iVBORw0KGgoAAAANSUhEUgAAAF4AAAAsCAIAAABjWpjzAAAACXBIWXMAAA7EAAAOxAGVKw4bAAAE+0lEQVRoge2aTWxUVRTH/+e++96005l2OrRIOy22tkUEiwRcmGgUJCKSGIgGXXSjJiYudGXiyhgXLtwZF0Z3fizY+LEyMRiCGkUIiASQ8iHSQunQoTNT2ul8vXfvPS7GTgbjAxOYB5r3W8zizJ035/7m3pd7zhvaN11yhFDMghBiGBGLchU1VfTkumRLzCbP3O6k7gyMQdzBuXkr6ypZVNqw5ZrQDQjQgIZV0mwYUkAQIIBwP9UQBAEAkPUQCXG7srlz4IbdE+rwJVTjS6jGl1CNL6EaX0I1voRqfAnV+BKQGmMMAF6iHrnhp2rDjNZa68ZIAMgbD7lpjDFCCGOMp3TtuElCWJYQS4KEz0G8FmdmJyoFUK0Yv5HNIAg1NS/StnrarHpwDigvassStYXwj3M2xgAUbROZy/PaqFRqWbGo4a/y1hLQqrEsIW188MnumXRaa93b1//MrueXx6zZYm1BcW2/EFHNI2rzZ/aU6kBky87tuVx24tyZgmERVGMpCDXMbEdoIV9+9cUxAB2dyfm5/Gsvjf18/OyG0ZHM1aqUMtomBaFUYs9Tti0BKKVsR0aiEoDnucr1alcjCkiNYHCzv4MZguC0RgB8+uXXV/O5ybkygFdeGIsAyUSkN2YtLrhXMoW7orSi3TaGmdETt2MRmknPAuhJpWzbbnaef0ME9Rv8xUx62gXuTrQ8/NjjJ44dBTCTWRgYHOpPREZWtLdGWvcfObmsTXRF6atv9rURre1fPjA0cuTQwVgsFmiigCBLoPkLBwAxAVg5MOgAmQrv/2Hf5i1PAth478CFyfM/HTtz+MwkE2968H4BFIFd27cMDq06PZ3f9MS27JVMvCMRQJLXJJx22VbGM9y8275SOhaXiwteX4cT7+joSa08O34CwNS8p7Q3mIx+see7Z7duAvDjsdOPrr9v/NJsPpd75IHVJy/Nrkl1AVgzul4pdfbUb9MFZVmiebcbZUzMti4WvF/yJaFdDqj5KQjA8Mjqp57e8d5HH6eLuq9dHjpwAMDgPUM5g5xBIpEEkMtmL0xMAGjvSKSLDCC5rMtzq0Ek2YBk1oB144E3jSUsAK+/+fbYjm0AsgolINXfB2B2ZmbDcD+A8at5AD29qcVCAUClVBpe3g6gUFiwHSeAJBupN4mbDhsGMD110QB/ZIvVklfysH50FYCdWzdPzlXOZ4tbH9oIYKg7vmbtKICXx55bBN54653jvx5OdCaDybNOEF6IYAw81wXAzAREHEfaslrxWoC9B49WysXBZOtQd4zBh05NVIFUZ8u773/4/d49caLPd3+2eu3oXD5Xu1qtBAsi7amCbrHI8zmq3xJqdUBLK2XSc4muTkvArWoiIiJm7o4KA/w+NWvb9vCKhAfkikbaotvBlSrPXLq8bqi3AqSzhWRXvNzkQqHxNhyEGizZsVtIuWw0E1G9GvA85URkNEIGKJdZe0rYko1hNq1RWwqUKwyClORWTbOPwo1qAq28K0WuV0n1WsmyhFZm3mUAQpBly6V3US4pMEgQAK1AJK5fqd9aAqq8ce18GiNLr9cbX4couKZE2OXzJVTjS6jGl1CNL6EaX0I1voRqfAnV+BKq8SVUcw2NFZo0MAzL/Lsnrf97DMMwaiJkTFpxh1xlhf9yBKANYjZykgRBfpsuSgETUHvojochBSralD2m8XyFKJCnLf8RCKSZ4474E0MOV9/y9JQ2AAAAAElFTkSuQmCC;" vertex="1" parent="1">
          <mxGeometry x="578" y="477.25" width="94" height="44" as="geometry" />
        </mxCell>
        <mxCell id="s27BEBi0idszuxIBBAvQ-6" value="" style="rounded=0;whiteSpace=wrap;html=1;fillColor=none;" vertex="1" parent="1">
          <mxGeometry x="500" y="410" width="248.5" height="138.25" as="geometry" />
        </mxCell>
      </root>
    </mxGraphModel>
  </diagram>
</mxfile>
